# xmcd CD database file
#
# Track frame offsets:
#	182
#	6537
#	13432
#	24427
#	35570
#	56967
#	74165
#	91967
#	108250
#	118975
#	131812
#	148730
#	159882
#	173042
#	188775
#	207020
#	222477
#	253352
#	267740
#	286987
#
# Disc length: 4051 seconds
#
# Revision: 8
# Processed by: cddbd v1.5.2PL0 Copyright (c) Steve Scherf et al.
# Submitted via: CDex 2.03
#
DISCID=450fd114
DTITLE=Diana Ross - Greatest Hits Live
DYEAR=1989
DGENRE=Soul
TTITLE0=Intro - Dirty Diana
TTITLE1=I'm Coming Out
TTITLE2=Upside Down
TTITLE3=What Can One Person Do
TTITLE4=Missing You
TTITLE5=Mirror, Mirror
TTITLE6=Chain Reaction
TTITLE7=Muscles
TTITLE8=Dirty Looks
TTITLE9=Love Hangover
TTITLE10=The Man I Love
TTITLE11=Do You Know Where You're Going To?
TTITLE12=Ain't No Mountain High Enough
TTITLE13=Paradise
TTITLE14=This House
TTITLE15=Workin' Overtime
TTITLE16=Supremes Medley: Baby Love - Stop in the Name of Love - You Can't Hurry Love - You Keep Me Hangin' On - Love Is Like an Itchin' in My Heart
TTITLE17=Why Do Fools Fall in Love
TTITLE18=Endless Love
TTITLE19=Reach Out and Touch (Somebody's Hand)
EXTD=YEAR: 1989
EXTT0=
EXTT1=
EXTT2=
EXTT3=
EXTT4=
EXTT5=
EXTT6=
EXTT7=
EXTT8=
EXTT9=
EXTT10=
EXTT11=
EXTT12=
EXTT13=
EXTT14=
EXTT15=
EXTT16=
EXTT17=
EXTT18=
EXTT19=
PLAYORDER=
